<svg width="36" height="36" viewBox="0 0 36 36" fill="none" xmlns="http://www.w3.org/2000/svg">
<path d="M32.2545 27.5715H28.833C27.5385 27.5715 27.1485 26.523 24.828 24.201C22.8 22.2465 21.9435 22.0035 21.4305 22.0035C20.721 22.0035 20.5275 22.1985 20.5275 23.175V26.253C20.5275 27.0855 20.2575 27.573 18.0825 27.573C15.9724 27.4313 13.9262 26.7902 12.1125 25.7027C10.2987 24.6153 8.76919 23.1124 7.65 21.318C4.99258 18.0105 3.14356 14.1286 2.25 9.98101C2.25 9.46801 2.445 9.00301 3.423 9.00301H6.843C7.722 9.00301 8.0385 9.39451 8.3835 10.299C10.044 15.186 12.8775 19.437 14.028 19.437C14.469 19.437 14.661 19.242 14.661 18.1425V13.1085C14.5155 10.812 13.296 10.6185 13.296 9.78751C13.3114 9.56827 13.4117 9.36368 13.5756 9.2172C13.7394 9.07072 13.9539 8.99388 14.1735 9.00301H19.5495C20.2845 9.00301 20.5275 9.36901 20.5275 10.248V17.043C20.5275 17.7765 20.8425 18.0195 21.0645 18.0195C21.5055 18.0195 21.8445 17.7765 22.653 16.9695C24.386 14.856 25.8019 12.5013 26.856 9.97951C26.9639 9.67674 27.1679 9.41757 27.4368 9.24154C27.7057 9.0655 28.0248 8.98226 28.3455 9.00451H31.767C32.793 9.00451 33.0105 9.51751 32.793 10.2495C31.5486 13.0371 30.0088 15.6833 28.2 18.1425C27.831 18.705 27.684 18.9975 28.2 19.6575C28.539 20.1705 29.739 21.1725 30.5445 22.125C31.7175 23.295 32.691 24.648 33.4275 26.13C33.7215 27.084 33.231 27.5715 32.2545 27.5715Z" fill="white"/>
</svg>
